<?xml version="1.0" encoding="UTF-8" standalone="no"?>
<svg xmlns="http://www.w3.org/2000/svg" xmlns:xlink="http://www.w3.org/1999/xlink" width="50.853348mm" height="15.4981mm" viewBox="0 0 50.853348 15.4981">
  <defs>
    <clipPath id="d">
      <path d="M0 0h.355469v756H0Zm0 0"/>
    </clipPath>
    <clipPath id="b">
      <path d="M0 0h.355469v26.367188H0Zm0 0"/>
    </clipPath>
    <clipPath id="e">
      <path d="M0 730.72656h.355469V756H0Zm0 0"/>
    </clipPath>
    <mask id="a">
      <use xlink:href="#a" width="100%" height="100%" transform="scale(.5 .50016)"/>
    </mask>
    <mask id="c">
      <use xlink:href="#b" width="100%" height="100%" transform="scale(.51381 .5138)"/>
    </mask>
    <mask id="f">
      <use xlink:href="#c" width="100%" height="100%" transform="scale(.51381 .5138)"/>
    </mask>
  </defs>
  <g clip-path="url(#d)" transform="translate(93.759466 -123.522778) scale(.35278)">
    <use xlink:href="#n" width="100%" height="100%" mask="url(#a)" transform="matrix(.48 0 0 .47985 -252.18945 -9.293457)"/>
  </g>
  <path fill="none" d="M93.759466-123.52278h85.724998v266.70001H93.759466z"/>
  <path fill="#fff" d="M4.929746-112.625252h88.8435v-7.536491h-88.8435zm0 0"/>
  <g clip-path="url(#b)" transform="translate(93.759466 -123.522778) scale(.35278)">
    <use xlink:href="#q" width="100%" height="100%" mask="url(#c)" transform="matrix(.47571 0 0 .47572 -256.64648 -7.977051)"/>
  </g>
  <path fill="#fff" d="M5.041368 140.200663h88.843498v-7.53649H5.041368Zm0 0"/>
  <g clip-path="url(#e)" transform="translate(93.759466 -123.522778) scale(.35278)">
    <use xlink:href="#t" width="100%" height="100%" mask="url(#f)" transform="matrix(-.47571 0 0 -.47572 257.04248 765.06885)"/>
  </g>
  <path d="M47.828066 5.868382c-.10472-.08682-.23564-.09784-.36104-.126782.12402.02893.25632.03996.36104.126782zM11.921902 4.617121c-.0372-.187413-.0785-.374826-.13091-.559481-.0841-.294901-.15848-.595312-.33762-.854385-.0358-.05237-.0675-.108864-.0923-.16812-.13918-.327974-.31695-.63252-.53606-.913641-.0579-.07304-.10473-.154341-.15847-.230131-.37069-.538812-.81029-1.000457-1.43178-1.252637-.10749-.04272-.21498-.08544-.32246-.125402-.17364-.06477-.34727-.129536-.52228-.188792-.0606-.02205-.12953-.0193-.18603-.04685-.44098-.209462-.91089-.265959-1.39044-.274228-.32384-.0069-.64768-.0096-.96739.05374-.26458.05237-.52641.09095-.7841.199816-.31557.132292-.64768.232887-.96049.381717-.10887.05237-.23151.08957-.32384.162609-.31695.253559-.65595.480935-.89986.817174-.28388.391365-.59118.764812-.88057 1.150663-.0744.100598-.15847.21911-.17087.336243-.0193.165364-.0827.30868-.12954.460262-.0179.0565-.0248.115757-.0372.175013.0124.0041.0234.0083.0344.01242.0606-.07993.0717-.206703.21222-.237021-.0358.112998-.0661.210841-.0992.319705.0813.01242.15986.0248.25081.03858-.0386.106112-.0772.214976-.12678.352778.10197-.05788.14469-.140557.24391-.16123-.0303.06201-.0524.110243-.0854.176389.0744-.01379.13367-.0441.17363-.02893.13367.05375.20258-.01101.2701-.112999.0289-.0441.0978-.110243.12816-.100598.10473.03168.13229-.04547.17914-.09784.38447-.428568.74139-.881944 1.15755-1.285709.42168-.409278.90675-.687641 1.49104-.782726.11438-.01792.23013-.03447.34451-.05374.3073-.05374.61461-.05374.92329-.0096.113.01655.22737.01792.34175.0248.0579.03859.10198.08957.15572.100598.13918.0303.25356.110243.37345.177768.46026.256315.82406.611848 1.07487 1.073489.16398.301791.31143.61323.44373.930176.0785.186038.13091.38723.16536.587047.04.234266.0372.476801.0717.712446.0689.4768.0441.95498.0262 1.43178-.008.201193-.0758.39963-.0992.602202-.0717.615985-.26872 1.19338-.5457 1.74184-.2825.560864-.60772 1.090031-1.15204 1.444185-.32935.213596-.66559.407899-1.0666.454751-.58291.07028-1.16444.04961-1.74184-.05236-.75241-.130915-1.43592-.424437-2.05328-.880568-.47129-.348643-.86127-.763433-1.15066-1.273306-.2136-.374826-.38723-.768946-.5333-1.17409-.12403-.340374-.19982-.694531-.23289-1.052819-.0303-.33073-.0303-.664214-.0386-.994943-.007-.338998-.0207-.676617-.008-1.014236.0152-.413414.10335-.818558.18603-1.223698.13505-.660083.37896-1.27193.77721-1.81488.2136-.290763.45889-.552591.81167-.691772.0951-.03583.18328-.125402.24253-.213597.0854-.125401.0207-.312815-.12126-.341753-.1447-.02755-.30731-.07028-.4396.06339-.0937.09508-.19844.177765-.29352.271473-.19017.187413-.39825.361043-.56362.569129-.28112.358288-.5016.755163-.67799 1.176846-.37345.8971-.56086 1.835545-.6339 2.798794-.0386.505739-.0482 1.012857-.0703 1.518599-.0179.409275.0138.814419.0717 1.219563.0262.183279.051.369313.0937.549836.0482.202572.11989.40101.17639.602203.12403.442351.32246.844737.61461 1.201649.36242.439596.80202.79375 1.23059 1.164442.24804.213596.51125.403768.79788.562239.14332.07717.29628.14056.42857.232889.4768.33073 1.01561.49196 1.5751.582909.38998.06339.78824.07717 1.18235.104733.1571.0096.31558.0069.47129-.0096.70969-.07304 1.39458-.246669 2.04915-.53468.33073-.146072.63389-.341753.89986-.592557.19705-.186034.38447-.385851.59806-.553971.21084-.165364.34314-.39274.49334-.600823.17363-.237024.29077-.515387.42719-.777215.073-.137802.14332-.278363.20533-.420303.0717-.165364.13505-.333484.19982-.500225.0524-.13505.12815-.265962.14882-.406523.0358-.248045.13092-.47818.17639-.72209.0413-.216352.15159-.420303.113-.649059-.001-.01101.001-.0248.007-.03447.0923-.15434.04-.323839.0551-.485069.0165-.170878.007-.347267.0427-.514008.0455-.206706.0386-.416168.0234-.617361-.0234-.304549-.10197-.606337-.16399-.906752m32.379334 5.740811c-.0648-.478179-.11025-.959114-.1695-1.437294-.0138-.114378-.051-.225996-.0717-.340374-.0441-.250804-.0703-.505742-.13367-.751032-.0579-.217731-.15848-.424434-.23702-.636655-.0978-.268714-.27561-.48231-.46854-.686262-.17638-.186034-.37207-.344509-.59531-.4768-.15709-.09371-.31695-.152961-.49196-.195683-.13229-.03305-.25494-.0028-.38034.0083-.4575.03996-.85851.221866-1.19062.527788-.22186.203951-.4079.445107-.60221.676617-.1185.143316-.22048.299036-.3321.447862-.0193.02618-.0482.0441-.073.06615-.0234-.01654-.0441-.02342-.0496-.03721-.0854-.169496-.16812-.340374-.2508-.512628-.0551-.114378-.10197-.234266-.16537-.345888-.0661-.118513-.14745-.227376-.22048-.341754-.0303-.04548-.0386-.112998-.1254-.08131-.0152.0055-.0675-.04685-.0786-.07993-.0648-.199817-.24391-.286632-.39687-.389985-.0703-.04823-.16537-.122647-.27148-.07855-.26734.107488-.52503.230134-.75378.414792-.14194.115754-.23565.263204-.35003.396875-.0345.03996-.11575.06201-.11989.100595-.0165.126781-.11575.194303-.17638.289387-.15572.245294-.30317.494718-.45614.741387-.0551.09095-.11851.176389-.20257.300412-.0345-.139182-.0496-.235645-.0841-.326595-.13642-.363802-.27147-.728983-.42168-1.088651-.0717-.175009-.16398-.343133-.31833-.4644-.0427-.03447-.0813-.07441-.14745-.07166.0262.07441.0469.136426.0717.212217-.0579-.01792-.0937-.02893-.10059-.03168-.0593.05099-.0937.106108-.13919.115753-.12953.0248-.23289.08268-.30454.16261-.008.139181-.0152.260448-.0221.38034-.0275.580154-.0634 1.158928-.0799 1.739082-.01.312815.0165.627009.0234.939824.006.254935.0413.511249-.0579.760677-.0207.05236-.004.124023.003.186034.01.07304.0358.144696.04.219107.004.06615.0331.09922.0813.140561.0648.0565.13918.05237.19568.0303.17226-.06339.28939.06201.3831.139181.13367.108864.22324.275608.31419.428569.073.122646.11576.265962.25907.333488.0551.02618.10749.05788.16261.08406.0675.03168.14607.04961.20257.09508.16399.132291.36243.194303.55535.24391.24529.06477.50436-.01238.56638-.286632.0179-.07993.01-.172254-.008-.254935-.0579-.285256-.13091-.566374-.18741-.851626-.0593-.293526-.0978-.589802-.18879-.87919-.0937-.30317-.20119-.600826-.30593-.898482-.0992-.281118-.0661-.522277.0317-.782726.0813-.216351.16124-.439593.19844-.665593.0248-.158471.0827-.288008.17226-.409275.0882-.115757.17776-.23151.28387-.329353.0868-.0813.19568-.143316.30317-.197058.0909-.04548.19017-.0248.2508.06201.0689.09784.14332.201192.17915.312815.14469.454751.1695.926041.1695 1.398707 0 .54157-.011 1.081761-.0234 1.621952 0 .06063-.0276.122647-.051.180524-.0524.122647-.11025.241155-.16261.363802-.0262.06063-.0262.110243.0317.169499.0565.05926.0978.148826.10748.228755.008.07304-.0124.136423.0841.152961.0703.01242.13781.0441.20671.04685.0772.0041.15572-.01379.19981-.01792.0634.107488.10198.188793.15434.259073.0675.09233.16675.166741.2136.267339.12678.272852.38723.369312.62839.463021.18465.07304.39411.09784.60633.09646.18466-.0014.3266-.0565.45613-.165365.13781-.115757.23014-.270097.2508-.445106.0262-.227376.0138-.460266.0372-.691776.0262-.243915-.006-.494715-.0262-.741384-.0152-.195682-.0537-.389985-.0758-.585668-.0413-.351398-.062-.704176-.14332-1.051443-.0386-.169499-.0248-.351399.0441-.509873.16123-.370692.47955-.581534.83922-.773081.0276.08544.0593.15434.0717.226.0441.259069.0896.516763.12265.775836.0675.542946.13642 1.087271.19016 1.631597.0469.467155.0717.937066.10887 1.406977.0124.16674.04.334863.0469.502983.011.32246.008.6463.0193.970139.008.249425.0248.498849-.0289.746898-.0138.06201.0124.132291.0221.199813.006.03996.0275.08131.0193.118512-.0289.140561-.0675.279742-.10335.418924-.011.04272-.0276.08406-.0386.126781-.0152.05374-.0289.107484-.0413.162606-.005.02618-.005.05375-.008.08131-.003.0565-.004.111622-.008.168119-.007.09095-.0166.183283-.0221.274232-.001.0083.0138.01655.0275.02893.0289-.02618.0593-.05374.0827-.07442.0786.08819.13505.195682.22187.235645.0675.0303.0799.06615.0992.117133.0124.03583.0275.0689.0524.128157.0289-.07304.0469-.119888.0648-.165365.0386.0041.0744.0083.10335.01242.0207-.104733.0386-.192927.0565-.281121h.0276c.0262.09646.0524.194306.0786.290766.04-.05099.062-.101974.0606-.151581-.011-.208086.0661-.387231.17501-.55673.0386-.05926.0951-.107488.15847-.179144.0455.07717.0744.128157.113.192924.0703-.118509.16123-.107485.25494-.0441.0193-.0303.0331-.04823.0441-.06752.04-.07304.0868-.115757.18052-.07993.0482.0193.11162.0303.15985.01517.0496-.01654.0854-.07303.1323-.104729.0262-.0193.062-.0248.0923-.03859.0248-.0096.051-.0193.0703-.03443.0661-.05512.12954-.110243.19293-.168123.0331-.0303.0717-.05925.0923-.09784.113-.201193.15296-.421679.15985-.649055.007-.214976.01-.431327.0207-.644924.0124-.249424.0165-.494714-.0165-.744139-.073-.545705-.0758-1.098296-.15021-1.644001m-17.463764.216323c-.007-.308681-.003-.617361-.0138-.926042-.011-.350022-.0303-.698666-.0496-1.047309-.0193-.337619-.0427-.675238-.0689-1.011481-.0152-.190168-.0496-.378957-.062-.570505-.0289-.458886-.0537-.919152-.0744-1.379418-.008-.170874-.001-.344508-.001-.519521.0331-.0055.0551-.01101.0772-.01379.48921-.05926.97979-.114378 1.46899-.176389.60496-.07717 1.209924-.16261 1.814884-.241155.47818-.06201.95636-.119892 1.43316-.181903.12126-.01655.24115-.06339.36104-.05926.31833.01101.60358-.09646.87506-.237021.24804-.126781.48644-.267339.75378-.348643.13229-.04134.23978-.118512.30868-.243914.0179-.03305.0565-.05374.0827-.08268.022-.02067.0579-.04961.0537-.06891-.006-.02342-.0427-.04134-.0662-.05925.0193-.0565.0386-.110243.0579-.165365-.0303-.01654-.0551-.0303-.0786-.04548.004-.02755.008-.05374.0152-.09095-.0896.0083-.15434-.03996-.19017-.103353-.0675-.121267-.17638-.133671-.29352-.144695-.0276-.0014-.0565-.01101-.0841-.0193-.17363-.05788-.3514-.07993-.5333-.06477-.20257.01655-.40514.03859-.60634.06064-.0868.01101-.17225.03305-.25769.03996-.20257.01792-.4079.0193-.60909.04685-.24116.03305-.47956.08544-.71934.129536-.35278.06477-.70555.126778-1.05833.195679-.22324.04272-.443734.09646-.665604.143316-.31281.06615-.62838.119892-.93982.194307-.41203.100594-.81993.216351-1.23058.325215-.073.0193-.14745.03859-.2136-.01242-.0758-.600823-.14332-1.197515-.22738-1.791448-.0496-.351398-.11162-.7028-.19017-1.048688-.0468-.212217-.10059-.431324-.31005-.563616-.35692-.22462-.74828-.345888-1.16031-.39274-.22876-.0248-.46165-.0041-.70418-.0041.051.05374.0882.09233.15021.157095-.21911-.0028-.40239-.04272-.6215.01101.13918.0689.26872.07579.36242.180524-.18189.0193-.35828-.09371-.50849.03306-.011.125402.073.148826.15158.169499.12954.03305.26045.05926.39137.08681.26182.05788.41065.219107.44372.486449.008.07579.011.151581.0124.227376.0138.611847.0248 1.222318.0372 1.834169.005.209462.0179.417544.022.627006.003.184658 0 .370692 0 .56224-.17501.06339-.34037.133671-.51262.184658-.34314.100594-.68902.192923-1.03629.281118-.0937.0248-.1943.02205-.31832.03447-.0221.02893-.008.111622-.0978.09922-.0179-.0028-.0386.03305-.0593.05099-.0813.07028-.15434.16123-.24805.205327-.0841.03859-.10749.106108-.1254.166744-.0317.106108-.0275.221862-.0537.330729-.0152.06752.0193.08957.0634.09922.20396.04823.41342.04823.61461-.0055.28663-.07579.56775-.170875.85025-.260449.26045-.08268.51952-.169499.77997-.252179.0345-.0096.0758-.0014.13367-.0014-.008.188792-.0152.362426-.0275.536056-.0152.248049-.0386.497473-.0524.746898-.01.184658-.007.370691-.0138.556729-.0165.461641-.0482.923283-.0524 1.386304-.004.421682.0165.843361.0331 1.26504.0138.366557.0345.731738.0592 1.09692.006.07028.0331.152961.0786.205327.10749.128157.22875.243911.35002.359667.0758.07304.14883.141937.17777.250804.011.04685.0482.100595.0896.122644.15572.08682.28388.21773.46302.264583.0551.01379.113.02893.16674.04961.17777.06752.35554.139181.53331.210837.13918.05512.26182.02755.3762-.06615.226-.186033.37896-.420299.46578-.700041.0179-.05512.0234-.118512.0565-.163989.10198-.140557.0813-.286632.0276-.432703-.0606-.168119-.0524-.344508-.0565-.518142"/>
  <path d="M30.577786 10.42831c.0524-.0303.10336-.06063.16399-.09508.011.0248.0248.0565.0413.09784-.0661.04823-.13367.09646-.2067.14883-.0496-.05237-.0992-.104733-.16123-.1695-.0289.01238-.0758.02342-.11025.04961-.15572.121268-.33762.140561-.52641.150206-.32935.01655-.56637-.202568-.61598-.449238-.04-.198437-.0675-.402389-.0799-.604961-.0317-.541566.0289-1.070733.29215-1.558561.25769-.476801.62149-.839223 1.14239-1.025261.0207-.0069.0441-.0083.0978-.01792.0234.188793.0482.361047.0648.533302.022.242534.0427.485069.0537.728983.008.208083-.004.416168.001.624251.007.253559.022.508497.0386.762056.008.133668.0289.26596.0372.399631.003.03305-.0165.07717-.0413.101974-.0579.06201-.13091.110243-.18603.175009-.0262.02893-.0275.08131-.04.124026.011.0083.0221.01655.0345.0248m-.24391.25907c.0289-.09095.0592-.106109.14331-.06477-.0537.0248-.0854.03859-.14331.06477m-.52504.101977c.062-.04961.1006-.07993.14608-.117133.0372.118509.0372.118509-.14608.117133m-.1502.06477c-.0179-.06477-.0275-.104729-.0386-.144695.0207-.0055.0386-.01379.04-.01101.0262.03997.091.07579-.001.155719m4.1286.460266c-.0427-.257694-.0772-.516766-.0992-.775836-.0303-.347267-.04-.695911-.0675-1.043174-.022-.282498-.0524-.566375-.0854-.848872-.0345-.293522-.0661-.591178-.20119-.859896-.0799-.159854-.17363-.31557-.27699-.461645-.0799-.115753-.13504-.230131-.0992-.370692.0386-.155716-.007-.296276-.0992-.409275-.14056-.168123-.28388-.345888-.46164-.46991-.17226-.121268-.38172-.198438-.58567-.263208-.40652-.128157-.82269-.108864-1.24161-.04961-.69453.09646-1.2926.377582-1.78319.87781-.11713.119888-.22462.248045-.34588.383096.0482.01242.0744.0193.11851.03168-.0951.137802-.18604.270093-.27974.401009-.007.0096-.04.0014-.062.0014.0606.09371.091.188793-.007.278366-.0138.01379-.0372.01654-.0813.03447.0345-.119888.0606-.216351.0882-.312815.0248-.03858.051-.07717.0772-.115753-.0138-.0055-.0262-.01242-.0386-.0193-.1378.226-.20808.479559-.26734.734494-.004.02205.0441.05512.0675.08406-.0221-.119888-.0221-.119888.0717-.08819-.0248.0303-.0482.05926-.0717.08819-.0345.04686.0524.100598.0179.150209-.007.0083-.0166.01792-.0331.02618-.0179-.03168-.0372-.06477-.0565-.09784-.0138.0069-.0276.01517-.0427.02205-.0345.230131-.13642.450617-.0744.727604.0648-.07442.11162-.128157.16536-.190168-.0275.175009-.0565.338998-.0799.505738-.0234.172255-.0496.345888-.0565.519522-.007.16123-.0276.326595 0 .486445.0124.0014.0262.0028.0386.0041.0152-.0441.0303-.08681.0469-.129533.006.111619.0524.223242-.001.340375-.0289-.03721-.051-.06477-.073-.09233-.0193.07579-.0207.141936.006.195682.11989.25218.25494.497469.45889.694531.0441.04272.0992.08957.15709.104729.15434.04134.26459.139182.36794.250804.0262.02755.0634.04548.0951.0689.13092.09371.25908.190172.39137.278367.11162.07441.21911.172254.34313.202568.3762.09371.75792.136426 1.1231-.05512.21222-.111619.41755-.235641.57878-.416165.16398-.184658.31419-.384475.47129-.576022.007-.0069.022-.0069.0345-.01101.11162.03447.073.12816.0785.203951.0234.283877.0441.566374.2384.799261.10473.124025.22186.216354.38585.248048.0785.01654.15158.05512.22738.08268.0317.01101.0648.0303.0965.0303.26045-.0014.51952.01655.75654-.140561.18604-.124023.25632-.261824.2012-.48231-.0469-.191548-.0978-.383096-.13092-.577399"/>
  <path d="M28.217202 7.457258c.0248-.03858.051-.07717.0772-.115754-.0262.03858-.0524.07717-.0772.115754zm-.16123.683507c-.0331.04686.0524.100598.0179.150209.0345-.04961-.051-.103354-.0179-.150209m20.576874-1.925119c-.22049-.101974-.43959-.206703-.66008-.307302-.0468-.02067-.1006-.0303-.15021-.0441.0634.03858.12403.08406.19017.115754.14883.07441.30179.14194.43822.241159-.33486-.133671-.66973-.268718-1.00459-.403765 0-.0028.001-.0083.001-.01101l.38034.06201c-.10611-.08682-.23702-.09784-.36105-.126781-.008-.0014-.0165-.0028-.0248-.0055-.0469-.01242-.0937-.02205-.13642-.04548.19706-.05512.37896.0041.54984.08131.34726.159854.68764.330729 1.03077.498849.0193.0096.0345.02893.04.07028-.0978-.04134-.19706-.08131-.29352-.125402m.27561 3.234256c-.0661-.101974-.0689-.248045-.0152-.450617.0427.139181.0289.278363.0152.450617m-.10335-1.464853c-.011.180523-.0262.359667-.0331.538811-.0124.321084-.0207.640789-.0303.960494-.003.08131-.0303.137802-.11163.179144-.0965.05099-.18052.124023-.29352.143316-.0345.0055-.0661.03168-.0937.07717.062-.0055.12402-.0096.19844-.01655.0124.03858.0248.07441.0441.128157-.0648.01101-.11713.0193-.18052.0303-.0455.09233-.10198.191548-.226.256318-.11575.06201-.24391.122643-.32798.242535-.0303.04272-.10748.07441-.16398.07441-.10197.0014-.21635.04548-.30455-.05099-.008-.01101-.0386-.01792-.0455-.01101-.0634.0565-.113-.0055-.1695-.01238-.0786-.0083-.16123.0096-.24116.01517-.003.0096-.006.02067-.008.0303.0537.0303.10886.06201.16261.09371-.006.01238-.007.02067-.011.02205-.15847.06477-.2949-.02893-.42581-.08131-.0758-.0303-.11852-.150206-.17088-.231511-.0248-.03859-.0372-.08544-.0592-.126781-.12265-.239776-.14056-.498849-.12816-.762053.0165-.389985.0138-.78135.0524-1.168576.0496-.483694.17915-.94947.44649-1.365638.0303-.04961.0648-.09646.0992-.143316.0551-.07028.11713-.0813.21221-.07028.35829.04134.65733.212217.95912.38585.15572.08957.32246.158472.48369.238401.12953.06339.25769.129533.39274.198437-.008.148827-.0179.286632-.0262.425814m-3.55947-.777216c.0537-.103353.10749-.206703.16123-.310056.0165.0069.0317.01379.0482.02205-.0372.114377-.0648.234265-.20946.288008m5.54522 3.841972c-.0537-.235645-.0579-.483694-.0854-.726228-.022-.190169-.0455-.378958-.0675-.56913-.0138-.124022-.0606-.242535-.0496-.373447.01-.106108-.0193-.217731-.0427-.323839-.0427-.184658-.0951-.365182-.14193-.54846-.0193-.07855-.0248-.16123-.0496-.238401-.0496-.15434-.10749-.305925-.16123-.458886-.0689-.195682-.13643-.39274-.20947-.587043-.0275-.07304-.0703-.14194-.10473-.213597-.01-.0193-.0248-.05788-.0179-.06201.0689-.05099.008-.07166-.0193-.103353-.0207-.02618-.0345-.05926-.051-.08957.008-.0055.0152-.01242.0234-.01792.0386.02205.0772.0441.11988.0689.004-.02893.01-.04547.006-.05099-.13918-.137802-.27974-.275608-.42168-.410654-.0152-.01517-.0441-.01242-.0661-.0193-.0827-.0248-.16812-.0441-.24667-.07855-.4327-.188793-.85989-.389986-1.29673-.567754-.19844-.08131-.41066-.129536-.62012-.176389-.0744-.01655-.16674-.0041-.23977.0248-.1447.05788-.29353.119892-.41893.210841-.28801.205328-.57051.420303-.8406.647679-.22738.191548-.45062.39963-.54984.690397-.11438.333484-.23151.672483-.29904 1.018371-.0689.358288-.0896.727604-.10886 1.092782-.0248.461645.001.920531.13367 1.368393.0152.04961.0179.126781.0496.143316.1254.06339.0758.177768.10197.270097.0179.06477.0262.163985.0703.186034.13918.07166.21498.208083.34727.290767.25907.163985.48783.373447.73863.552591.26596.190172.55121.350023.89021.356912.16674.0028.33349-.03443.50161-.04547.30179-.02205.56362-.14883.81993-.293522.16399-.09371.32246-.195682.4892-.279742.0427-.02205.12954-.01792.15985.01238.0675.06615.13092.150206.16261.23978.0579.16123.0909.332108.13643.497472.003.0083.0193.01101.0524.02893.0124-.0689.022-.129536.0386-.217731.11438.179144.0675.384472.18052.54846.0386-.04548.0758-.08682.12678-.146071.0565.106109.10887.201193.16123.297656.0331-.01101.0813-.04134.0978-.0303.19155.148826.38172.0193.57051-.0014.0303-.0028.0703-.0303.0813-.0565.0331-.08544.0648-.173633.0758-.263207.0124-.09784-.003-.198438.003-.297656.0262-.434083.0703-.865406-.0289-1.299489m-31.848694-.140525c-.19155-.228756-.33625-.480935-.45338-.757922-.16398-.387227-.25631-.789616-.28801-1.198891-.02894-.372071-.0689-.740008-.15296-1.099675-.14607-.624251-.41754-1.183736-.91364-1.613683-.15296-.133671-.30179-.274229-.49747-.348644-.1254-.04685-.24805-.100598-.37621-.14056-.12677-.03996-.26596-.08682-.39136-.01655-.12816.07304-.27285.06752-.4079.101974-.11024.02893-.15158.08544-.15985.172254-.0248.249424-.15296.453376-.30868.629765-.32108.365178-.57878.771701-.85438 1.168576-.12127.172254-.24392.343129-.36518.515384-.0372-.08682-.0455-.162606-.0469-.237021-.007-.507118-.006-1.014236-.0193-1.519978-.004-.172255-.006-.348644-.0717-.514008-.10197.0069-.16261.03996-.16123.146074 0 .02205-.0303.04547-.0551.0813-.0579-.305921-.0717-.319704-.32108-.351398-.0386.04823-.0675.119888-.113.133671-.0427.01242-.0537.0248-.0634.05788-.0868.307301-.17501.614606-.26045.923286-.0358.128158-.0703.256315-.0978.387227-.0662.336243-.12403.672483-.19568 1.007346-.0524.24529-.0951.489204-.0923.741384.004.256318.003.512632 0 .768946-.001.294901.0565.578778.14607.857141.11024.343133.36656.556726.70418.629765.25356.05512.52227.0083.76619-.107488.11851-.0565.19706-.15572.18879-.290767-.008-.119888-.0152-.252179-.0717-.352777-.0827-.147451-.12402-.303171-.14056-.463021-.0165-.159854-.04-.338999.0124-.482315.10887-.297656.15572-.614605.33487-.892968.14469-.227376.28801-.454752.47404-.642165.17363-.17501.29904-.383096.46027-.564995.0689-.07717.13918-.152964.20395-.23289.0909-.114377.17501-.23289.26596-.344508.022-.02618.062-.03721.10197-.05926.0965.401009.0538.784105.0413 1.167197-.0124.36656-.0386.731738.0193 1.09692.022.137802.0317.276983.0413.416168.0303.381716.15158.733115.37482 1.03904.17777.242535.38172.465776.51952.734494.0882.173634.22049.293522.38999.355533.20946.07442.35553.217731.48369.383096.0565.07442.12402.121266.20946.144695.10611.02893.21222.06615.32246.07717.11163.0096.2384.03996.33762-.04134.11025-.09095.21222-.190168.31282-.292146.0606-.05926.11438-.126778.16398-.195679.14332-.203951.16123-.428572.113-.666972-.0221-.110243-.0358-.219107-.10886-.30868m3.67811-2.472185c-.0799-.329353-.22186-.63252-.3762-.931556-.0358-.06615-.0744-.132291-.11576-.194303-.11438-.168119-.24667-.323839-.34313-.501604-.17914-.329353-.38585-.635275-.64079-.909507-.14607-.157095-.29903-.293521-.54157-.246669-.0455.0083-.10197-.03168-.14469-.0193-.0951.02755-.18466.07441-.2949.119888-.0165.115753-.051.230131-.0469.344509.0248.62425-.0289 1.24437-.12402 1.860352-.0537.337619-.13642.671103-.1819 1.011481-.0427.314191-.13091.607713-.27147.894345-.0744.15434-.14745.322463-.12678.514007.01.09922.0717.151585.11024.226.0703.137802.10887.296277.19293.424434.0868.133671.10611.281122.15158.424438.0317.09784.0551.201193.10198.293522.10197.199817.2191.39274.38722.54846.12265.114377.24254.232886.36519.347263.0152.01517.0441.01517.0634.02618.16398.09095.34313.04961.51538.06063.20257.01379.40101.0055.56362-.158475.0992-.101974.19844-.186037.16261-.348643-.011-.04961 0-.104733.0138-.15572.0565-.22462.12127-.447862.17501-.673862.0992-.429947.1943-.861271.28663-1.293974.10749-.501608.14883-1.011481.14056-1.524113-.001-.04547-.011-.09233-.022-.137802m-3.15437-3.734465c.0331.03859.0689.07579.10198.112998.13504.02067.27147.04272.42168.06615.004.01101.0193.04548.0386.09095.051-.02755.0896-.04823.13229-.07028.0317.02067.0675.06339.0965.05926.0703-.01101.13367-.0083.20119.01655.0193.0069.0496-.01655.0758-.0248.0262-.0069.0606-.02755.0772-.01792.0634.03306.10336.01101.1571-.02618.0634-.04548.13918-.07579.21359-.104733.14194-.0565.27699-.115753.32384-.282497.008-.0303.0469-.05237.0634-.08131.0303-.05512.0661-.110243.0772-.169499.0262-.154341-.003-.310057-.0896-.432704-.14745-.209461-.25356-.439592-.38447-.655944-.13919-.227376-.27561-.4644-.452-.660082-.13091-.147451-.27147-.294898-.36518-.458887-.12678-.223241-.35691-.146071-.51814-.249424-.004-.0028-.011 0-.0234.0014-.0165.02342-.0345.05099-.0469.0689h-.34726c-.003.04685-.011.0937-.008.139181.008.130912-.0537.221866-.15709.290767-.0234.01655-.0469.03447-.0717.04961-.0827.05375-.13367.121268-.13229.22738 0 .0813-.0303.16123-.0317.241155 0 .108864-.011.230131.0289.325215.0538.124026.15435.228755.23152.343133.0289.04272.0579.08819.0717.136426.0441.16812.0827.337619.12265.507118.0179.07304.0469.147451.0441.219107-.007.143316.0648.242535.14882.338998m8.3933 4.518547c.0221-.06752.0441-.133667.0744-.225996-.14194.04823-.11438.136426-.11714.213596.0138.0041.0289.0083.0427.01238m-.02476.525056c.004-.08406.007-.14194.01-.201196-.0772.09922-.0772.09922-.01.201196m-.11162.075791c.011.07028.0193.119888.0275.170875.0524-.06201.0717-.117133-.0275-.170875m.06201-.396875c.01.0028.0207.0055.0331.0083.0138-.0441.0275-.08819.0427-.130916-.0179-.0028-.0358-.0069-.0537-.0096-.007.0441-.0152.08819-.022.132292"/>
  <path d="M47.828066 5.868382c-.12677-.02067-.25355-.04134-.38171-.06201.12816.02067.25494.04134.38171.06201m-.00551-.004135s.001 0 .003.0014zm.00276.00138c.001.0014.001.0014.003.0028zm-1.15204 4.569572c-.0441-.04823-.073-.07992-.12816-.139181.0276.129537.0276.129537.12816.139181"/>
</svg>