<?xml version="1.0" standalone="no"?>
<!DOCTYPE svg PUBLIC "-//W3C//DTD SVG 20010904//EN"
 "http://www.w3.org/TR/2001/REC-SVG-20010904/DTD/svg10.dtd">
<svg version="1.0" xmlns="http://www.w3.org/2000/svg"
 width="372.000000pt" height="40.000000pt" viewBox="0 0 372.000000 40.000000"
 preserveAspectRatio="xMidYMid meet">

<g transform="translate(0.000000,40.000000) scale(0.100000,-0.100000)"
fill="#87CEEB" stroke="none">
<path d="M3346 309 c-16 -19 -72 -27 -61 -9 3 6 0 10 -9 10 -8 0 -16 -4 -18
-9 -1 -4 -13 -11 -25 -15 -18 -6 -22 -4 -17 9 5 13 2 14 -20 5 -14 -5 -37 -17
-52 -26 -22 -15 -33 -16 -90 -5 -57 10 -67 10 -81 -4 -13 -13 -18 -14 -24 -3
-7 10 -9 8 -9 -6 0 -17 -1 -17 -25 -2 -14 9 -30 14 -35 11 -6 -3 -10 1 -10 11
0 13 -3 14 -14 5 -15 -13 -96 -12 -96 1 0 4 -5 8 -11 8 -5 0 -8 -4 -4 -9 7
-12 -54 -9 -72 2 -8 5 -13 4 -13 -2 0 -17 -41 -13 -62 6 -15 13 -21 14 -27 5
-6 -10 -22 -9 -77 1 -74 14 -153 6 -201 -21 -33 -18 -161 -12 -168 7 -6 14 -8
14 -19 -1 -10 -13 -33 -17 -119 -20 -59 -2 -107 -1 -107 2 0 7 -168 -4 -175
-12 -4 -3 -18 0 -33 8 -14 7 -29 10 -32 5 -3 -4 -15 -13 -27 -20 -17 -9 -24
-8 -30 1 -4 7 -23 18 -41 25 -17 6 -30 7 -26 2 8 -13 -10 -11 -24 3 -9 9 -12
9 -12 0 0 -8 -13 -12 -32 -11 -18 1 -41 -2 -50 -6 -11 -4 -18 -3 -18 4 0 11
-13 12 -112 11 -29 -1 -59 0 -120 2 -42 2 -61 -2 -76 -15 -22 -20 -82 -32 -82
-16 0 5 10 14 22 19 20 8 21 9 4 9 -11 1 -28 -6 -38 -16 -20 -18 -25 -4 -6 15
9 9 5 12 -18 11 -16 -1 -22 -3 -13 -6 11 -3 14 -12 11 -34 l-5 -31 -13 29 -14
29 -318 -3 c-174 -1 -349 -5 -389 -8 -77 -7 -120 -27 -93 -44 8 -5 18 -7 22
-5 4 3 8 -2 8 -10 0 -25 -14 -25 -39 0 -13 14 -20 30 -17 41 3 10 2 24 -3 32
-6 9 -11 -2 -15 -33 -5 -33 -3 -52 7 -66 11 -16 12 -31 6 -58 -10 -44 -5 -51
20 -28 15 13 34 17 81 15 41 -2 64 2 69 10 7 10 13 10 30 0 11 -8 21 -17 21
-22 0 -4 6 -5 12 0 20 12 57 11 98 -3 37 -13 106 -9 115 6 3 4 25 5 50 3 31
-4 52 -1 70 11 19 13 25 13 25 3 0 -29 21 -35 58 -17 22 11 43 15 51 10 9 -5
30 0 53 12 44 23 87 19 150 -13 l38 -20 10 26 c6 15 10 31 10 36 0 15 19 10
49 -12 16 -12 34 -18 40 -15 6 4 11 2 11 -3 0 -17 78 -13 185 9 107 22 171 26
177 10 2 -7 17 -6 43 3 34 12 42 12 53 1 8 -9 22 -12 40 -8 15 4 62 8 105 9
43 1 83 7 90 14 6 6 25 11 42 11 17 0 54 6 81 14 43 13 96 14 197 4 9 -1 17
-7 17 -14 0 -6 15 -10 38 -8 28 1 36 6 34 18 -4 20 5 20 26 0 12 -13 27 -15
66 -10 80 10 84 11 104 29 19 17 20 17 25 -3 6 -25 42 -27 51 -3 5 13 9 14 15
5 7 -11 60 -15 136 -11 17 1 59 1 95 0 36 -1 74 -1 85 -1 11 1 56 1 100 0 48
-1 99 4 128 13 26 9 49 11 53 6 9 -15 24 -10 18 6 -8 19 13 19 32 0 21 -21 29
-19 49 11 13 21 19 23 31 13 11 -9 18 -8 34 6 11 10 36 19 55 20 32 3 35 1 30
-19 -5 -18 -4 -19 7 -6 7 8 20 21 29 28 14 10 17 10 16 0 -1 -32 4 -45 18 -45
18 0 18 2 3 26 -6 10 -8 26 -4 36 5 15 15 17 61 13 43 -4 55 -1 55 9 0 10 -6
12 -20 8 -12 -4 -27 -2 -34 4 -9 8 -22 8 -43 1 -22 -8 -40 -7 -71 3 -37 13
-41 12 -56 -4z m74 -33 c0 -3 -4 -8 -10 -11 -5 -3 -10 -1 -10 4 0 6 5 11 10
11 6 0 10 -2 10 -4z m-2150 -22 c0 -10 -43 -45 -48 -39 -6 6 28 45 40 45 4 0
8 -3 8 -6z m-595 -15 c-4 -5 -13 -9 -20 -9 -8 0 -12 -6 -9 -14 8 -20 -9 -27
-69 -30 -29 -2 -61 -6 -72 -11 -18 -7 -18 -6 2 14 12 11 28 21 36 21 8 0 21 8
30 18 16 18 112 29 102 11z m-485 -23 c0 -3 -4 -8 -10 -11 -5 -3 -10 -1 -10 4
0 6 5 11 10 11 6 0 10 -2 10 -4z"/>
<path d="M2786 301 c-4 -7 -5 -15 -2 -18 9 -9 19 4 14 18 -4 11 -6 11 -12 0z"/>
<path d="M3564 228 c9 -55 16 -65 33 -43 16 22 17 39 3 30 -7 -4 -8 3 -4 21 5
19 4 25 -5 20 -6 -4 -11 -2 -11 3 0 6 -5 11 -11 11 -8 0 -9 -13 -5 -42z"/>
<path d="M3500 251 c0 -5 5 -13 10 -16 6 -3 10 -2 10 4 0 5 -4 13 -10 16 -5 3
-10 2 -10 -4z"/>
<path d="M3239 194 c-12 -15 -12 -16 8 -10 12 4 31 2 42 -3 11 -6 22 -7 25 -2
3 5 -2 11 -12 14 -9 2 -24 8 -33 11 -9 4 -22 0 -30 -10z"/>
<path d="M3480 199 c0 -5 5 -7 10 -4 6 3 10 8 10 11 0 2 -4 4 -10 4 -5 0 -10
-5 -10 -11z"/>
<path d="M3375 190 c-3 -4 11 -8 31 -8 39 0 39 9 -1 13 -14 2 -27 0 -30 -5z"/>
<path d="M3470 170 c0 -5 5 -10 11 -10 5 0 7 5 4 10 -3 6 -8 10 -11 10 -2 0
-4 -4 -4 -10z"/>
<path d="M3515 160 c-3 -6 1 -7 9 -4 18 7 21 14 7 14 -6 0 -13 -4 -16 -10z"/>
</g>
</svg>
